<svg width="17" height="17" viewBox="0 0 17 17" xmlns="http://www.w3.org/2000/svg"><title>github17</title><desc>Created with Sketch.</desc><path d="M11.193 16.13c-.08.03-.16.065-.244.08-.318.055-.52-.107-.523-.43-.004-.597-.004-1.194.006-1.79.01-.688-.006-1.367-.533-1.934.313-.056.592-.095.865-.157 1.806-.413 2.744-1.544 2.864-3.42.06-.957-.11-1.834-.75-2.586-.048-.053-.05-.174-.028-.25.17-.623.12-1.23-.078-1.84-.05-.15-.13-.198-.28-.188-.532.03-1.018.214-1.446.498-.413.276-.797.335-1.288.224-1.08-.242-2.168-.17-3.246.077-.122.028-.286-.01-.398-.075-.506-.294-1.012-.58-1.596-.695-.45-.087-.49-.065-.61.368-.15.547-.166 1.093-.012 1.642.022.08 0 .208-.055.267-1.196 1.325-.763 3.83.043 4.788.627.744 1.46 1.08 2.384 1.254.16.03.322.052.483.08-.14.358-.263.695-.404 1.027-.028.065-.116.12-.187.146-.907.35-1.686.093-2.205-.724-.277-.436-.633-.76-1.163-.856-.017-.003-.035-.012-.05-.01l-.426.115c.08.11.135.26.243.326.45.283.74.685.935 1.16.303.745.892 1.077 1.658 1.142.374.03.75.005 1.16.005 0 .462.017.99-.006 1.516-.013.282-.3.396-.643.28-.91-.31-1.755-.753-2.484-1.376C.55 12.542-.465 9.694.41 6.364c.873-3.322 3.146-5.36 6.546-5.998 4.704-.883 9.16 2.518 9.627 7.258.368 3.737-1.847 7.235-5.39 8.507zm-4.077-4.13l-.008.018c.008 0 .017.003.026.004.006 0 .012.012-.018-.022zm-2.13 1.478c.075.045.145.102.225.126.03.01.083-.056.178-.126-.132-.05-.21-.093-.29-.104-.033-.004-.074.067-.11.104zm.672.114c.01.05.108.11.166.108.055 0 .11-.074.165-.116l-.257-.23c-.034.098-.09.176-.075.238zm.822-.197c-.07.017-.128.08-.19.124l.132.16.194-.175c-.047-.04-.1-.118-.136-.11zm-2.038-.275c.038.072.097.134.178.236.054-.087.112-.154.102-.168-.05-.066-.12-.12-.19-.17-.003-.004-.098.086-.09.102z" fill="#C7D7DE"/></svg>