<svg width="18" height="17" viewBox="0 0 18 17" xmlns="http://www.w3.org/2000/svg"><title>social-network34</title><desc>Created with Sketch.</desc><path d="M8.864.026C4.33.026.644 3.614.644 8.023c0 4.41 3.687 7.997 8.22 7.997 4.532 0 8.22-3.588 8.22-7.997 0-4.41-3.688-7.997-8.22-7.997zm4.79 3.662c.98 1.162 1.57 2.643 1.586 4.255-.232-.048-2.552-.506-4.89-.22l-.15-.353c-.146-.333-.302-.664-.466-.99 2.597-1.03 3.773-2.497 3.92-2.692zm-5.433-2.51c1.784 0 3.415.65 4.654 1.72-.125.175-1.18 1.556-3.678 2.467-1.15-2.056-2.426-3.746-2.62-4 .528-.122 1.078-.188 1.645-.188zm-2.985.647c.185.247 1.44 1.94 2.603 3.95-3.284.85-6.176.837-6.49.833.454-2.12 1.923-3.88 3.887-4.783zM1.198 8.007l.003-.21c.308.008 3.712.05 7.217-.97.202.382.393.77.57 1.16l-.277.08c-3.62 1.138-5.547 4.243-5.707 4.507-1.12-1.21-1.804-2.812-1.805-4.567zm7.02 6.83c-1.62 0-3.117-.537-4.308-1.44.126-.25 1.548-2.924 5.51-4.266l.045-.014c.986 2.49 1.392 4.58 1.498 5.18-.84.348-1.77.542-2.744.54zm3.926-1.167c-.072-.416-.447-2.415-1.364-4.87 2.2-.343 4.133.22 4.373.293-.314 1.9-1.433 3.54-3.01 4.577z" fill="#C7D7DE"/></svg>