<svg width="17" height="14" viewBox="0 0 17 14" xmlns="http://www.w3.org/2000/svg"><title>Shape Copy</title><desc>Created with Sketch.</desc><path d="M11.687-.016h.07c.932 0 1.792.427 2.436 1.067.788-.14 1.432-.426 2.077-.78-.215.78-.788 1.42-1.432 1.848.644-.072 1.29-.285 1.862-.498-.43.64-1.003 1.21-1.648 1.706v.427c0 4.337-3.294 9.315-9.38 9.315-1.863 0-3.58-.57-5.085-1.494.286 0 .5.07.787.07 1.576 0 2.937-.496 4.082-1.42-1.432 0-2.65-.996-3.08-2.276.216.07.43.07.645.07.288 0 .574-.07.86-.14-1.503-.285-2.65-1.636-2.65-3.2v-.072c.43.214.932.427 1.505.427-.86-.57-1.504-1.564-1.504-2.702 0-.568.144-1.137.43-1.634 1.648 1.99 4.083 3.27 6.804 3.412-.072-.213-.072-.497-.072-.782.072-1.848 1.504-3.342 3.295-3.342z" fill="#C7D7DE"/></svg>