<svg width="48" height="48" viewBox="0 0 48 48" xmlns="http://www.w3.org/2000/svg"><title>Favicon</title><desc>Created with Sketch.</desc><g fill="none"><path d="M23.96.175l23.872 47.573H.168L23.96.175z" fill="#586E7E"/><g><g fill="#93ECCD"><path id="left" d="M5.203 38.54L9.4 47.3H1.006z"/><path id="right" d="M9.902 47.3l4.196-8.76H5.706z"/></g><g fill="#93ECCD"><path id="left" d="M14.602 38.54l4.196 8.76h-8.392z"/><path id="right" d="M19.3 47.3l4.197-8.76h-8.392z"/></g><g><path id="left" fill="#93ECCD" d="M24 38.54l4.196 8.76h-8.392z"/><path id="right" fill="#fff" d="M28.7 47.3l4.195-8.76h-8.392z"/></g><g fill="#fff"><path id="left" d="M33.4 38.54l4.195 8.76h-8.392z"/><path id="right" d="M42.797 38.54l4.196 8.76h-8.39z"/><path id="middle" d="M38.098 47.3l4.196-8.76h-8.392z"/></g><g fill="#93ECCD"><g id="bottom"><path id="left" d="M9.902 29.255l4.196 8.76H5.706z"/><path id="right" d="M14.6 38.015l4.197-8.76h-8.392z"/></g><g id="top"><path id="left" d="M14.6 19.97l4.197 8.76h-8.392z"/><path id="right" d="M19.3 28.73l4.196-8.76h-8.392z"/></g></g><g fill="#fff"><g><path id="right" d="M38.098 29.255l-4.196 8.76h8.392z"/><path id="left" d="M33.4 38.015l-4.197-8.76h8.392z"/></g><g id="top"><path id="right" d="M33.4 19.97l-4.197 8.76h8.392z"/><path id="left" d="M28.7 28.73l-4.196-8.76h8.392z"/></g></g><g><path fill="#93ECCD" d="M19.3 10.686l4.197 8.76h-8.392z"/><path fill="#fff" d="M28.7 10.686l4.195 8.76h-8.39z"/><path fill="#93ECCD" d="M24 1.4l4.196 8.76h-8.392z"/><path fill="#93ECCD" d="M24 19.444l4.196-8.76h-8.392z"/></g></g></g></svg>