<?xml version="1.0" encoding="UTF-8" standalone="no"?>
<svg width="48px" height="48px" viewBox="0 0 48 48" version="1.1" xmlns="http://www.w3.org/2000/svg" xmlns:xlink="http://www.w3.org/1999/xlink" xmlns:sketch="http://www.bohemiancoding.com/sketch/ns">
    <!-- Generator: Sketch 3.3.3 (12072) - http://www.bohemiancoding.com/sketch -->
    <title>Favicon</title>
    <desc>Created with Sketch.</desc>
    <defs></defs>
    <g id="Styleguide" stroke="none" stroke-width="1" fill="none" fill-rule="evenodd" sketch:type="MSPage">
        <g id="Favicon" sketch:type="MSArtboardGroup">
            <g id="logo-copy" sketch:type="MSLayerGroup">
                <path d="M23.9608751,0.175182482 L47.8321678,47.7480953 L0.167832168,47.7480953 L23.9608751,0.175182482 Z" id="background" fill="#586E7E" sketch:type="MSShapeGroup"></path>
                <g id="logo" transform="translate(1.006993, 1.401460)" sketch:type="MSShapeGroup">
                    <g id="bottom-left" transform="translate(0.000000, 37.138686)" fill="#93ECCD">
                        <polygon id="left" points="4.1958042 0 8.39160839 8.75912409 0 8.75912409 "></polygon>
                        <polygon id="right" transform="translate(8.895105, 4.379562) scale(1, -1) translate(-8.895105, -4.379562) " points="8.8951049 0 13.0909091 8.75912409 4.6993007 8.75912409 "></polygon>
                    </g>
                    <g id="bottom-mid-left" transform="translate(9.398601, 37.138686)" fill="#93ECCD">
                        <polygon id="left" points="4.1958042 0 8.39160839 8.75912409 0 8.75912409 "></polygon>
                        <polygon id="right" transform="translate(8.895105, 4.379562) scale(1, -1) translate(-8.895105, -4.379562) " points="8.8951049 0 13.0909091 8.75912409 4.6993007 8.75912409 "></polygon>
                    </g>
                    <g id="bottom-mid-right" transform="translate(18.797203, 37.138686)">
                        <polygon id="left" fill="#93ECCD" points="4.1958042 0 8.39160839 8.75912409 0 8.75912409 "></polygon>
                        <polygon id="right" fill="#FFFFFF" transform="translate(8.895105, 4.379562) scale(1, -1) translate(-8.895105, -4.379562) " points="8.8951049 0 13.0909091 8.75912409 4.6993007 8.75912409 "></polygon>
                    </g>
                    <g id="bottom-right" transform="translate(28.195804, 37.138686)" fill="#FFFFFF">
                        <polygon id="left" points="4.1958042 0 8.39160839 8.75912409 0 8.75912409 "></polygon>
                        <polygon id="right" points="13.5944056 0 17.7902098 8.75912409 9.3986014 8.75912409 "></polygon>
                        <polygon id="middle" transform="translate(8.895105, 4.379562) scale(1, -1) translate(-8.895105, -4.379562) " points="8.8951049 0 13.0909091 8.75912409 4.6993007 8.75912409 "></polygon>
                    </g>
                    <g id="middle-left" transform="translate(4.699301, 18.218978)" fill="#93ECCD">
                        <g id="bottom" transform="translate(0.000000, 9.459854)">
                            <polygon id="left" points="4.1958042 0.175182482 8.39160839 8.93430657 0 8.93430657 "></polygon>
                            <polygon id="right" transform="translate(8.895105, 4.554745) scale(1, -1) translate(-8.895105, -4.554745) " points="8.8951049 0.175182482 13.0909091 8.93430657 4.6993007 8.93430657 "></polygon>
                        </g>
                        <g id="top" transform="translate(4.699301, 0.175182)">
                            <polygon id="left" points="4.1958042 0.175182482 8.39160839 8.93430657 0 8.93430657 "></polygon>
                            <polygon id="right" transform="translate(8.895105, 4.554745) scale(1, -1) translate(-8.895105, -4.554745) " points="8.8951049 0.175182482 13.0909091 8.93430657 4.6993007 8.93430657 "></polygon>
                        </g>
                    </g>
                    <g id="middle-right" transform="translate(32.391608, 27.503650) scale(-1, 1) translate(-32.391608, -27.503650) translate(23.496503, 18.218978)" fill="#FFFFFF">
                        <g id="bottom" transform="translate(0.000000, 9.459854)">
                            <polygon id="right" points="4.1958042 0.175182482 8.39160839 8.93430657 0 8.93430657 "></polygon>
                            <polygon id="left" transform="translate(8.895105, 4.554745) scale(1, -1) translate(-8.895105, -4.554745) " points="8.8951049 0.175182482 13.0909091 8.93430657 4.6993007 8.93430657 "></polygon>
                        </g>
                        <g id="top" transform="translate(4.699301, 0.175182)">
                            <polygon id="right" points="4.1958042 0.175182482 8.39160839 8.93430657 0 8.93430657 "></polygon>
                            <polygon id="left" transform="translate(8.895105, 4.554745) scale(1, -1) translate(-8.895105, -4.554745) " points="8.8951049 0.175182482 13.0909091 8.93430657 4.6993007 8.93430657 "></polygon>
                        </g>
                    </g>
                    <g id="top" transform="translate(14.097902, 0.000000)">
                        <polygon id="left" fill="#93ECCD" points="4.1958042 9.28467153 8.39160839 18.0437956 0 18.0437956 "></polygon>
                        <polygon id="right" fill="#FFFFFF" points="13.5944056 9.28467153 17.7902098 18.0437956 9.3986014 18.0437956 "></polygon>
                        <polygon fill="#93ECCD" points="8.8951049 0 13.0909091 8.75912409 4.6993007 8.75912409 "></polygon>
                        <polygon id="middle" fill="#93ECCD" transform="translate(8.895105, 13.664234) scale(1, -1) translate(-8.895105, -13.664234) " points="8.8951049 9.28467153 13.0909091 18.0437956 4.6993007 18.0437956 "></polygon>
                    </g>
                </g>
            </g>
        </g>
    </g>
</svg>