<svg width="143" height="137" viewBox="0 0 143 137" xmlns="http://www.w3.org/2000/svg"><title>logo</title><desc>Created with Sketch.</desc><g fill="none"><path d="M71.383.5L142.5 136.28H.5L71.383.5z" fill="#586E7E"/><g fill="#93ECCD"><path id="left" d="M15.5 110L28 135H3z"/><path id="right" d="M29.5 135L42 110H17z"/></g><g fill="#93ECCD"><g id="bottom"><path id="left" d="M29.5 83.5l12.5 25H17z"/><path id="right" d="M43.5 108.5l12.5-25H31z"/></g><g id="top"><path id="left" d="M43.5 57L56 82H31z"/><path id="right" d="M57.5 82L70 57H45z"/></g></g><g fill="#fff"><g><path id="right" d="M113.5 83.5l-12.5 25h25z"/><path id="left" d="M99.5 108.5L87 83.5h25z"/></g><g id="top"><path id="right" d="M99.5 57L87 82h25z"/><path id="left" d="M85.5 82L73 57h25z"/></g></g><g><path id="left" fill="#93ECCD" d="M57.5 30.5l12.5 25H45z"/><path id="right" fill="#fff" d="M85.5 30.5l12.5 25H73z"/><path fill="#93ECCD" d="M71.5 4L84 29H59z"/><path id="middle" fill="#93ECCD" d="M71.5 55.5l12.5-25H59z"/></g><g fill="#93ECCD"><path id="left" d="M43.5 110L56 135H31z"/><path id="right" d="M57.5 135L70 110H45z"/></g><g><path id="left" fill="#93ECCD" d="M71.5 110L84 135H59z"/><path id="right" fill="#fff" d="M85.5 135L98 110H73z"/></g><g fill="#fff"><path d="M99.5 110l12.5 25H87z"/><path d="M127.5 110l12.5 25h-25z"/><path d="M113.5 135l12.5-25h-25z"/></g></g></svg>