<?xml version="1.0" encoding="UTF-8" standalone="no"?>
<svg width="143px" height="137px" viewBox="0 0 143 137" version="1.1" xmlns="http://www.w3.org/2000/svg" xmlns:xlink="http://www.w3.org/1999/xlink" xmlns:sketch="http://www.bohemiancoding.com/sketch/ns">
    <!-- Generator: Sketch 3.3.3 (12072) - http://www.bohemiancoding.com/sketch -->
    <title>logo</title>
    <desc>Created with Sketch.</desc>
    <defs></defs>
    <g id="Styleguide" stroke="none" stroke-width="1" fill="none" fill-rule="evenodd" sketch:type="MSPage">
        <g id="Brand" sketch:type="MSArtboardGroup" transform="translate(-441.000000, -257.000000)">
            <g id="logo" sketch:type="MSLayerGroup" transform="translate(441.000000, 257.000000)">
                <path d="M71.3834403,0.5 L142.5,136.281022 L0.5,136.281022 L71.3834403,0.5 Z" id="background" fill="#586E7E" sketch:type="MSShapeGroup"></path>
                <g transform="translate(3.000000, 4.000000)" sketch:type="MSShapeGroup">
                    <g id="bottom-left" transform="translate(0.000000, 106.000000)" fill="#93ECCD">
                        <polygon id="left" points="12.5 0 25 25 0 25 "></polygon>
                        <polygon id="right" transform="translate(26.500000, 12.500000) scale(1, -1) translate(-26.500000, -12.500000) " points="26.5 0 39 25 14 25 "></polygon>
                    </g>
                    <g id="middle-left" transform="translate(14.000000, 52.000000)" fill="#93ECCD">
                        <g id="bottom" transform="translate(0.000000, 27.000000)">
                            <polygon id="left" points="12.5 0.5 25 25.5 0 25.5 "></polygon>
                            <polygon id="right" transform="translate(26.500000, 13.000000) scale(1, -1) translate(-26.500000, -13.000000) " points="26.5 0.5 39 25.5 14 25.5 "></polygon>
                        </g>
                        <g id="top" transform="translate(14.000000, 0.500000)">
                            <polygon id="left" points="12.5 0.5 25 25.5 0 25.5 "></polygon>
                            <polygon id="right" transform="translate(26.500000, 13.000000) scale(1, -1) translate(-26.500000, -13.000000) " points="26.5 0.5 39 25.5 14 25.5 "></polygon>
                        </g>
                    </g>
                    <g id="middle-right" transform="translate(96.500000, 78.500000) scale(-1, 1) translate(-96.500000, -78.500000) translate(70.000000, 52.000000)" fill="#FFFFFF">
                        <g id="bottom" transform="translate(0.000000, 27.000000)">
                            <polygon id="right" points="12.5 0.5 25 25.5 0 25.5 "></polygon>
                            <polygon id="left" transform="translate(26.500000, 13.000000) scale(1, -1) translate(-26.500000, -13.000000) " points="26.5 0.5 39 25.5 14 25.5 "></polygon>
                        </g>
                        <g id="top" transform="translate(14.000000, 0.500000)">
                            <polygon id="right" points="12.5 0.5 25 25.5 0 25.5 "></polygon>
                            <polygon id="left" transform="translate(26.500000, 13.000000) scale(1, -1) translate(-26.500000, -13.000000) " points="26.5 0.5 39 25.5 14 25.5 "></polygon>
                        </g>
                    </g>
                    <g id="top" transform="translate(42.000000, 0.000000)">
                        <polygon id="left" fill="#93ECCD" points="12.5 26.5 25 51.5 0 51.5 "></polygon>
                        <polygon id="right" fill="#FFFFFF" points="40.5 26.5 53 51.5 28 51.5 "></polygon>
                        <polygon fill="#93ECCD" points="26.5 0 39 25 14 25 "></polygon>
                        <polygon id="middle" fill="#93ECCD" transform="translate(26.500000, 39.000000) scale(1, -1) translate(-26.500000, -39.000000) " points="26.5 26.5 39 51.5 14 51.5 "></polygon>
                    </g>
                    <g id="bottom-mid-left" transform="translate(28.000000, 106.000000)" fill="#93ECCD">
                        <polygon id="left" points="12.5 0 25 25 0 25 "></polygon>
                        <polygon id="right" transform="translate(26.500000, 12.500000) scale(1, -1) translate(-26.500000, -12.500000) " points="26.5 0 39 25 14 25 "></polygon>
                    </g>
                    <g id="bottom-mid-right" transform="translate(56.000000, 106.000000)">
                        <polygon id="left" fill="#93ECCD" points="12.5 0 25 25 0 25 "></polygon>
                        <polygon id="right" fill="#FFFFFF" transform="translate(26.500000, 12.500000) scale(1, -1) translate(-26.500000, -12.500000) " points="26.5 0 39 25 14 25 "></polygon>
                    </g>
                    <g id="bottom-right" transform="translate(84.000000, 106.000000)" fill="#FFFFFF">
                        <polygon id="left" points="12.5 0 25 25 0 25 "></polygon>
                        <polygon id="right" points="40.5 0 53 25 28 25 "></polygon>
                        <polygon id="middle" transform="translate(26.500000, 12.500000) scale(1, -1) translate(-26.500000, -12.500000) " points="26.5 0 39 25 14 25 "></polygon>
                    </g>
                </g>
            </g>
        </g>
    </g>
</svg>