<svg width="1440" height="1024" viewBox="0 0 1440 1024" xmlns="http://www.w3.org/2000/svg"><title>Rectangle 39</title><desc>Created with Sketch.</desc><path d="M0 0h1440v1024H0V0zm413.578 216.805l75.854 104.42h-45.227L374.222 220.93h-6.665v100.294h-36.975V76.204h43.323c32.373 0 55.753 6.083 70.14 18.25 15.87 13.54 23.805 31.42 23.805 53.637 0 17.352-4.972 32.268-14.917 44.752-9.945 12.484-23.063 20.47-39.355 23.963zm-46.02-28.09H379.3c35.018 0 52.527-13.382 52.527-40.148 0-25.073-17.033-37.61-51.098-37.61h-13.173v77.76zM774.78 110.8h-98.23v58.873h95.374v34.754H676.55v81.885h98.23v34.753H639.575V76.045H774.78V110.8zm301.157-2.54l-29.992 17.773c-5.608-9.733-10.95-16.08-16.028-19.043-5.29-3.385-12.114-5.078-20.47-5.078-10.264 0-18.78 2.91-25.55 8.728-6.772 5.713-10.157 12.907-10.157 21.582 0 11.955 8.887 21.582 26.66 28.882l24.44 9.998c19.888 8.04 34.435 17.852 43.64 29.437 9.203 11.583 13.805 25.786 13.805 42.607 0 22.535-7.51 41.154-22.534 55.86-15.128 14.81-33.906 22.217-56.335 22.217-21.264 0-38.826-6.295-52.685-18.885-13.648-12.59-22.164-30.31-25.55-53.162l37.452-8.252c1.692 14.388 4.655 24.332 8.886 29.834 7.618 10.58 18.726 15.87 33.326 15.87 11.53 0 21.105-3.863 28.723-11.586 7.617-7.723 11.425-17.508 11.425-29.357 0-4.76-.66-9.125-1.983-13.093-1.324-3.967-3.387-7.617-6.19-10.95-2.804-3.332-6.427-6.453-10.87-9.362-4.444-2.91-9.734-5.686-15.87-8.33l-23.645-9.84c-33.537-14.177-50.305-34.912-50.305-62.207 0-18.41 7.035-33.8 21.106-46.18C971.306 73.243 988.816 67 1009.763 67c28.247 0 50.305 13.753 66.174 41.26zM353.975 381.523v147.583c0 21.053 3.438 36.446 10.315 46.18 10.262 14.07 24.703 21.105 43.323 21.105 18.725 0 33.22-7.034 43.48-21.105 6.878-9.416 10.316-24.81 10.316-46.18V381.524h36.974v157.74c0 25.813-8.04 47.077-24.12 63.793-18.092 18.62-40.308 27.93-66.65 27.93-26.344 0-48.508-9.31-66.493-27.93-16.08-16.716-24.12-37.98-24.12-63.794v-157.74h36.975zm433.063 245.02H741.81L671.83 526.248h-6.665V626.54h-36.975v-245.02h43.323c32.374 0 55.754 6.084 70.142 18.25 15.87 13.542 23.804 31.42 23.804 53.638 0 17.35-4.972 32.267-14.917 44.75-9.946 12.485-23.064 20.472-39.356 23.963l75.854 104.42zM668.163 494.034h11.743c35.018 0 52.527-13.383 52.527-40.15 0-25.072-17.033-37.61-51.1-37.61h-13.17v77.76zm354.057 9.68h101.245v8.093c0 18.41-2.168 34.7-6.506 48.877-4.233 13.12-11.374 25.39-21.424 36.817-22.746 25.602-51.68 38.403-86.805 38.403-34.276 0-63.634-12.378-88.072-37.134-24.44-24.86-36.658-54.694-36.658-89.5 0-35.548 12.43-65.7 37.292-90.455 24.862-24.862 55.12-37.292 90.772-37.292 19.15 0 37.028 3.914 53.638 11.743 15.87 7.83 31.473 20.524 46.814 38.086l-26.343 25.232c-20.1-26.766-44.592-40.15-73.474-40.15-25.92 0-47.662 8.94-65.223 26.82-17.562 17.562-26.343 39.567-26.343 66.015 0 27.294 9.786 49.775 29.358 67.443 18.302 16.398 38.138 24.597 59.51 24.597 18.196 0 34.54-6.136 49.035-18.408 14.494-12.378 22.587-27.19 24.28-44.433h-61.097v-34.755zM475.787 730.958h-98.23v58.874h95.374v34.753h-95.373v81.885h98.23v34.754H340.582v-245.02h135.205v34.754zM600 942.096V680.414l178.687 186.94V697.076h36.975v259.936L636.975 770.55v171.546H600zm422.49-211.138v210.266h-36.974V730.958H929.18v-34.754h149.488v34.754h-56.177z" fill="#fff"/></svg>