<svg width="800" height="600" viewBox="0 0 800 600" xmlns="http://www.w3.org/2000/svg"><title>dribbble copy 3</title><desc>Created with Sketch.</desc><path d="M247.26 152.9l37.906 52.21h-22.6l-34.97-50.146h-3.332v50.146h-18.477V82.602h21.65c16.176 0 27.86 3.04 35.05 9.125 7.93 6.77 11.895 15.71 11.895 26.818 0 8.675-2.485 16.133-7.455 22.375-4.97 6.242-11.525 10.236-19.666 11.98zm-22.996-14.043h5.868c17.5 0 26.248-6.69 26.248-20.074 0-12.536-8.51-18.805-25.534-18.805h-6.582v38.88zM427.758 99.9H378.67v29.436h47.66v17.376h-47.66v40.942h49.088v17.377h-67.564V82.524h67.564V99.9zm150.492-1.27l-14.988 8.886c-2.802-4.866-5.472-8.04-8.01-9.52-2.643-1.694-6.053-2.54-10.23-2.54-5.127 0-9.383 1.454-12.766 4.364-3.384 2.856-5.075 6.453-5.075 10.79 0 5.978 4.44 10.79 13.323 14.44l12.212 5c9.94 4.02 17.208 8.926 21.808 14.718 4.6 5.793 6.9 12.894 6.9 21.304 0 11.267-3.755 20.577-11.262 27.93-7.56 7.405-16.943 11.108-28.15 11.108-10.627 0-19.402-3.147-26.328-9.442-6.82-6.295-11.076-15.155-12.767-26.58l18.715-4.126c.845 7.194 2.326 12.166 4.44 14.916 3.807 5.29 9.358 7.935 16.653 7.935 5.763 0 10.547-1.93 14.354-5.792 3.806-3.86 5.71-8.754 5.71-14.678 0-2.38-.33-4.562-.992-6.546-.66-1.984-1.692-3.81-3.093-5.475-1.4-1.665-3.21-3.225-5.432-4.68-2.22-1.455-4.864-2.843-7.93-4.166l-11.815-4.92c-16.76-7.087-25.14-17.455-25.14-31.102 0-9.204 3.517-16.9 10.548-23.09 7.032-6.24 15.78-9.362 26.25-9.362 14.114 0 25.137 6.876 33.067 20.63zM217.477 235.26v73.79c0 10.526 1.718 18.222 5.154 23.09 5.13 7.034 12.346 10.55 21.65 10.55 9.358 0 16.6-3.516 21.728-10.55 3.437-4.71 5.155-12.406 5.155-23.09v-73.79h18.477v78.867c0 12.907-4.018 23.54-12.054 31.897-9.04 9.31-20.142 13.965-33.306 13.965-13.164 0-24.24-4.656-33.226-13.966-8.036-8.358-12.054-18.99-12.054-31.897V235.26h18.477zm216.406 122.507h-22.6l-34.97-50.146h-3.332v50.147h-18.476V235.26h21.65c16.176 0 27.86 3.04 35.05 9.124 7.93 6.77 11.895 15.71 11.895 26.818 0 8.675-2.486 16.133-7.456 22.375-4.97 6.242-11.524 10.236-19.666 11.98l37.905 52.21zm-59.403-66.253h5.868c17.5 0 26.25-6.69 26.25-20.074 0-12.536-8.513-18.805-25.536-18.805h-6.582v38.88zm176.927 4.84H602v4.047c0 9.205-1.084 17.35-3.25 24.44-2.116 6.558-5.684 12.694-10.707 18.407-11.366 12.8-25.825 19.2-43.377 19.2-17.13 0-31.8-6.188-44.01-18.565-12.214-12.43-18.32-27.348-18.32-44.75 0-17.774 6.212-32.85 18.636-45.227 12.424-12.43 27.543-18.646 45.36-18.646 9.568 0 18.503 1.956 26.803 5.87 7.93 3.915 15.728 10.262 23.393 19.043l-13.163 12.616c-10.045-13.384-22.284-20.075-36.716-20.075-12.954 0-23.818 4.47-32.594 13.41-8.776 8.78-13.163 19.782-13.163 33.006 0 13.65 4.89 24.89 14.67 33.723 9.146 8.2 19.058 12.298 29.738 12.298 9.094 0 17.26-3.067 24.504-9.203 7.243-6.19 11.287-13.594 12.133-22.216h-30.53v-17.376zm-273.06 113.62h-49.086v29.437h47.66v17.377h-47.66v40.942h49.088v17.375h-67.564V392.597h67.564v17.377zm62.07 105.568v-130.84l89.293 93.468v-85.136h18.477V523l-89.292-93.23v85.772h-18.477zm211.125-105.568v105.13h-18.477v-105.13h-28.15v-17.377h74.7v17.377H551.54z" fill="none"/></svg>